<svg width="35" height="33" viewBox="0 0 35 33" fill="none" xmlns="http://www.w3.org/2000/svg">
<rect x="0.5" y="0.5" width="34" height="32" rx="9.5" fill="white" stroke="#bebebe"/>
<path d="M25.0471 14.5456C25.076 15.9218 24.3109 17.239 22.9491 18.2483C21.5887 19.2567 19.6678 19.9251 17.5082 19.983C15.3486 20.0409 13.4019 19.4761 12.0008 18.5418C10.5983 17.6065 9.77902 16.3318 9.75021 14.9556C9.7214 13.5795 10.4864 12.2623 11.8482 11.2529C13.2086 10.2446 15.1295 9.57619 17.2891 9.51831C19.4487 9.46042 21.3955 10.0252 22.7965 10.9595C24.199 11.8948 25.0183 13.1695 25.0471 14.5456Z" fill="#333333" stroke="#333333"/>
<path d="M18.0351 20.6006L18.4558 20.5667L14.4736 23.6558L14.7808 20.4405L17.9344 20.602L17.9852 20.6046L18.0351 20.6006Z" fill="#333333" stroke="#333333"/>
</svg>
