<svg width="33" height="42" viewBox="0 0 33 42" fill="none" xmlns="http://www.w3.org/2000/svg">
<path d="M5 2.62646H28C30.4853 2.62646 32.5 4.64118 32.5 7.12646V29.9999C32.5 36.3512 27.3513 41.4999 21 41.4999H5C2.51472 41.4999 0.5 39.4852 0.5 36.9999V7.12647C0.5 4.64118 2.51472 2.62646 5 2.62646Z" fill="white" stroke="black"/>
<path d="M26.0083 17.8101C26.0083 19.7279 24.4239 21.2974 22.4509 21.2974C20.478 21.2974 18.8936 19.7279 18.8936 17.8101C18.8936 15.8923 20.478 14.3228 22.4509 14.3228C24.4239 14.3228 26.0083 15.8923 26.0083 17.8101Z" fill="white" stroke="black"/>
<path d="M14.1065 18.3416C14.1065 20.2594 12.522 21.8289 10.5491 21.8289C8.57615 21.8289 6.9917 20.2594 6.9917 18.3416C6.9917 16.4238 8.57615 14.8542 10.5491 14.8542C12.522 14.8542 14.1065 16.4238 14.1065 18.3416Z" fill="white" stroke="black"/>
<line x1="0.5" y1="-0.5" x2="8.2475" y2="-0.5" transform="matrix(-0.431133 -0.902288 0.907983 -0.419006 22.7056 17.9941)" stroke="black" stroke-linecap="round"/>
<line x1="0.5" y1="-0.5" x2="1.44025" y2="-0.5" transform="matrix(0.836466 -0.548019 0.561391 0.827551 18.9346 10.6328)" stroke="black" stroke-linecap="round"/>
<path d="M18.8649 10.1802C18.8488 10.1899 18.8334 10.2016 18.8142 10.2051C18.7994 10.2077 18.785 10.2125 18.771 10.2175C18.7656 10.2195 18.7564 10.2284 18.7597 10.2191C18.7632 10.2092 18.7686 10.1963 18.7762 10.1885C18.7803 10.1841 18.7863 10.1792 18.792 10.178C18.8082 10.1744 18.7829 10.1919 18.7772 10.1957C18.7625 10.2057 18.7422 10.2158 18.7339 10.2321" stroke="black" stroke-width="0.25" stroke-linecap="round"/>
<path d="M19.0167 10.2363C18.9909 10.2177 18.9674 10.2052 18.9348 10.2052C18.9205 10.2052 18.9058 10.2068 18.8922 10.2022C18.8883 10.2008 18.884 10.202 18.881 10.1994C18.8785 10.1972 18.875 10.194 18.872 10.1927C18.8563 10.1859 18.8603 10.1727 18.8603 10.1606C18.8603 10.1497 18.8546 10.1533 18.8477 10.1569C18.8401 10.1609 18.8348 10.1613 18.8413 10.1699" stroke="black" stroke-width="0.25" stroke-linecap="round"/>
<path d="M18.7778 10.1817C18.7872 10.1745 18.7971 10.17 18.8069 10.1635C18.8129 10.1595 18.8169 10.1551 18.8243 10.1533" stroke="black" stroke-width="0.25" stroke-linecap="round"/>
<path d="M18.7143 10.2654C18.7106 10.2662 18.6971 10.2683 18.6953 10.272" stroke="black" stroke-width="0.25" stroke-linecap="round"/>
<path d="M18.6976 10.28C18.69 10.2869 18.6795 10.2897 18.6723 10.2963C18.6705 10.2979 18.662 10.3024 18.6638 10.3024" stroke="black" stroke-width="0.25" stroke-linecap="round"/>
<ellipse cx="18.664" cy="10.367" rx="0.811475" ry="0.797468" fill="black"/>
<path d="M19.4751 12.7595C16.4658 14.5362 17.8409 13.7038 17.7197 13.7748C16.749 14.3433 14.3301 17.7647 13.327 18.2724C12.4121 18.7354 10.9865 18.6108 10.8193 18.5262" stroke="black" stroke-linecap="round"/>
<line x1="12.3608" y1="11.7595" x2="13.0658" y2="11.7595" stroke="black" stroke-width="2" stroke-linecap="round"/>
<path d="M12.9834 12.7595L14.0654 13.8228" stroke="black" stroke-linecap="round"/>
<line x1="10.8193" y1="4.84814" x2="20.557" y2="4.84814" stroke="black" stroke-width="2"/>
<line x1="9.73779" y1="26.1138" x2="23.2624" y2="26.1138" stroke="black" stroke-width="2"/>
<line x1="9.73779" y1="34.6201" x2="20.5575" y2="34.6201" stroke="black" stroke-width="2"/>
<line x1="9.73779" y1="31.9619" x2="23.2624" y2="31.9619" stroke="black" stroke-width="2"/>
<line x1="9.73779" y1="28.772" x2="23.2624" y2="28.772" stroke="black" stroke-width="2"/>
<rect x="9.19727" y="1" width="0.540984" height="1.12643" fill="black"/>
<line x1="9" y1="0.830811" x2="21" y2="0.830811" stroke="black"/>
<path d="M24 41V34" stroke="black"/>
<path d="M24 34H32" stroke="black"/>
<line x1="4" y1="7.5" x2="29" y2="7.5" stroke="black"/>
<line x1="29.5" y1="7" x2="29.5" y2="34" stroke="black"/>
<line x1="24.8913" y1="38.2468" x2="4.00606" y2="38.5" stroke="black"/>
<line x1="4.5" y1="38.3037" x2="4.5" y2="7.99991" stroke="black"/>
<path d="M31.3017 34.5589L30.1642 36.6445L28.7159 38.1194L27.847 39.0043L26.6744 39.5805L24.3214 40.4314L24.1813 34.3939L31.3017 34.5589Z" fill="#C4C4C4"/>
</svg>
