<svg width="467" height="351" viewBox="0 0 467 351" fill="none" xmlns="http://www.w3.org/2000/svg">
<g id="Group 1">
<g id="Bicycle_Flatline 1">
<g id="#333_bicycle_flatline">
<path id="Vector" d="M309.537 146.672L297.93 149.113L304.597 180.634L316.203 178.193L309.537 146.672Z" fill="#68E1FD"/>
<path id="Vector_2" d="M304.601 181.158C304.478 181.158 304.36 181.114 304.266 181.035C304.172 180.957 304.109 180.848 304.087 180.728L297.421 149.211C297.403 149.144 297.4 149.074 297.412 149.005C297.424 148.937 297.451 148.872 297.491 148.815C297.529 148.756 297.579 148.705 297.637 148.665C297.695 148.625 297.76 148.597 297.829 148.582L309.434 146.137C309.502 146.124 309.573 146.124 309.641 146.138C309.709 146.152 309.774 146.18 309.831 146.219C309.89 146.255 309.941 146.302 309.981 146.358C310.021 146.414 310.05 146.478 310.065 146.545L316.731 178.073C316.759 178.21 316.732 178.353 316.655 178.47C316.579 178.588 316.459 178.671 316.322 178.702L304.717 181.147L304.601 181.158ZM298.565 149.514L305.021 179.994L315.529 177.77L309.084 147.29L298.565 149.514Z" fill="#231F20"/>
<path id="Vector_3" d="M305.815 141.969L299.452 143.308C298.753 143.998 298.239 144.852 297.96 145.793C297.68 146.733 297.643 147.729 297.853 148.687L297.654 149.164L309.259 146.719L309.458 146.254C309.255 145.294 308.816 144.4 308.18 143.652C307.544 142.904 306.731 142.325 305.815 141.969V141.969Z" fill="white"/>
<path id="Vector_4" d="M297.712 149.7C297.632 149.7 297.553 149.683 297.48 149.649C297.407 149.614 297.343 149.564 297.292 149.502C297.233 149.425 297.195 149.334 297.183 149.238C297.171 149.142 297.184 149.044 297.222 148.955L297.351 148.629C297.163 147.606 297.227 146.552 297.536 145.559C297.845 144.566 298.39 143.662 299.125 142.924C299.203 142.857 299.295 142.81 299.394 142.784L305.757 141.445C305.856 141.416 305.961 141.416 306.06 141.445C307.06 141.83 307.947 142.458 308.642 143.271C309.337 144.084 309.818 145.057 310.041 146.102C310.07 146.209 310.07 146.322 310.041 146.428L309.843 146.894C309.81 146.974 309.757 147.045 309.69 147.1C309.623 147.154 309.543 147.192 309.458 147.208L297.853 149.653L297.712 149.7ZM299.779 143.785C299.202 144.401 298.778 145.143 298.541 145.952C298.304 146.761 298.26 147.614 298.413 148.442L308.921 146.114C308.724 145.298 308.337 144.539 307.791 143.9C307.245 143.261 306.556 142.759 305.78 142.435L299.779 143.785Z" fill="#231F20"/>
<path id="Vector_5" d="M304.915 137.772L298.346 139.154L299.236 143.357L305.804 141.976L304.915 137.772Z" fill="white"/>
<path id="Vector_6" d="M299.242 143.879C299.12 143.877 299.002 143.835 298.907 143.759C298.812 143.683 298.745 143.578 298.717 143.459L297.829 139.256C297.816 139.188 297.816 139.118 297.83 139.05C297.844 138.982 297.872 138.918 297.911 138.861C297.944 138.799 297.991 138.747 298.047 138.706C298.104 138.666 298.169 138.639 298.238 138.628L304.811 137.242C304.949 137.214 305.092 137.242 305.209 137.318C305.327 137.394 305.411 137.513 305.441 137.65L306.329 141.853C306.346 141.922 306.349 141.994 306.337 142.064C306.325 142.134 306.298 142.201 306.259 142.26C306.22 142.318 306.17 142.367 306.112 142.405C306.054 142.444 305.989 142.469 305.92 142.481L299.347 143.867L299.242 143.879ZM298.985 139.559L299.651 142.714L305.185 141.55L304.507 138.395L298.985 139.559Z" fill="#231F20"/>
<path id="Vector_7" d="M152.16 302.94C141.012 302.94 130.114 299.644 120.845 293.467C111.575 287.291 104.35 278.512 100.084 268.241C95.8178 257.969 94.7015 246.667 96.8765 235.764C99.0514 224.86 104.42 214.844 112.303 206.983C120.186 199.122 130.23 193.768 141.164 191.599C152.098 189.43 163.431 190.543 173.731 194.798C184.031 199.052 192.834 206.257 199.028 215.501C205.221 224.745 208.527 235.612 208.527 246.73C208.509 261.632 202.564 275.919 191.997 286.456C181.43 296.994 167.104 302.922 152.16 302.94V302.94ZM152.16 198.669C142.628 198.669 133.31 201.488 125.385 206.769C117.459 212.05 111.282 219.556 107.634 228.338C103.987 237.12 103.032 246.783 104.892 256.106C106.752 265.429 111.342 273.992 118.082 280.714C124.822 287.435 133.409 292.013 142.758 293.867C152.107 295.722 161.797 294.77 170.603 291.132C179.41 287.495 186.937 281.334 192.232 273.431C197.528 265.527 200.355 256.235 200.355 246.73C200.339 233.988 195.257 221.772 186.222 212.763C177.187 203.753 164.937 198.684 152.16 198.669V198.669Z" fill="#231F20"/>
<path id="Vector_8" d="M208.27 234.633C207.754 234.631 207.253 234.459 206.845 234.143C206.437 233.827 206.146 233.385 206.017 232.887C203.161 221.871 196.977 211.997 188.304 204.604C179.631 197.211 168.888 192.656 157.532 191.557C146.176 190.458 134.755 192.867 124.818 198.459C114.881 204.05 106.909 212.553 101.981 222.816C101.859 223.108 101.679 223.372 101.452 223.593C101.224 223.813 100.954 223.985 100.657 224.098C100.361 224.211 100.044 224.262 99.7274 224.249C99.4104 224.236 99.0994 224.158 98.8134 224.021C98.5274 223.884 98.2724 223.69 98.064 223.452C97.8556 223.213 97.6981 222.935 97.6012 222.633C97.5044 222.332 97.4701 222.014 97.5005 221.699C97.5309 221.384 97.6254 221.079 97.7781 220.802C103.118 209.677 111.76 200.459 122.531 194.398C133.303 188.337 145.683 185.726 157.993 186.92C170.303 188.113 181.947 193.053 191.346 201.07C200.745 209.086 207.444 219.792 210.535 231.734C210.688 232.331 210.596 232.965 210.281 233.495C209.966 234.025 209.453 234.41 208.854 234.563C208.663 234.609 208.467 234.633 208.27 234.633V234.633Z" fill="#68E1FD"/>
<path id="Vector_9" d="M152.16 254.274C156.339 254.274 159.726 250.896 159.726 246.73C159.726 242.563 156.339 239.185 152.16 239.185C147.982 239.185 144.595 242.563 144.595 246.73C144.595 250.896 147.982 254.274 152.16 254.274Z" fill="#231F20"/>
<path id="Vector_10" d="M321.845 302.94C310.699 302.929 299.807 299.622 290.545 293.439C281.283 287.255 274.067 278.473 269.81 268.2C265.553 257.928 264.445 246.628 266.626 235.728C268.808 224.828 274.181 214.818 282.066 206.962C289.952 199.107 299.995 193.759 310.928 191.595C321.86 189.431 333.191 190.547 343.487 194.803C353.784 199.06 362.583 206.264 368.774 215.507C374.966 224.749 378.27 235.615 378.27 246.73C378.251 261.642 372.299 275.938 361.719 286.477C351.14 297.016 336.799 302.937 321.845 302.94ZM321.845 198.669C312.315 198.68 303.003 201.509 295.085 206.797C287.167 212.085 280.999 219.595 277.361 228.378C273.722 237.161 272.776 246.823 274.642 256.142C276.508 265.461 281.103 274.019 287.845 280.734C294.588 287.45 303.175 292.022 312.522 293.871C321.869 295.721 331.557 294.766 340.36 291.127C349.163 287.487 356.686 281.327 361.979 273.425C367.272 265.523 370.097 256.233 370.097 246.73C370.082 233.978 364.991 221.754 355.944 212.742C346.896 203.731 334.632 198.669 321.845 198.669V198.669Z" fill="#231F20"/>
<path id="Vector_11" d="M265.303 249.058C264.683 249.058 264.09 248.813 263.652 248.376C263.214 247.94 262.968 247.347 262.968 246.73C262.983 231.163 269.191 216.237 280.229 205.23C291.268 194.222 306.234 188.031 321.845 188.016C322.464 188.016 323.058 188.261 323.496 188.698C323.934 189.135 324.18 189.727 324.18 190.344C324.18 190.962 323.934 191.554 323.496 191.991C323.058 192.428 322.464 192.673 321.845 192.673C307.473 192.688 293.694 198.389 283.532 208.523C273.369 218.657 267.653 232.398 267.638 246.73C267.638 247.347 267.392 247.94 266.954 248.376C266.516 248.813 265.922 249.058 265.303 249.058Z" fill="#68E1FD"/>
<path id="Vector_12" d="M321.845 254.274C326.023 254.274 329.41 250.896 329.41 246.73C329.41 242.563 326.023 239.185 321.845 239.185C317.666 239.185 314.279 242.563 314.279 246.73C314.279 250.896 317.666 254.274 321.845 254.274Z" fill="#231F20"/>
<path id="Vector_13" d="M323.398 249.058C322.835 249.058 322.292 248.855 321.868 248.488C315.198 242.468 309.576 235.386 305.231 227.531C300.199 218.031 287.719 178.888 282.652 162.437C277.024 178.958 260.201 218.485 224.09 234.365C223.523 234.615 222.88 234.631 222.302 234.408C221.724 234.185 221.259 233.743 221.008 233.178C220.757 232.613 220.742 231.971 220.965 231.395C221.188 230.818 221.632 230.354 222.199 230.104C265.326 211.138 280.235 154.497 280.375 153.926C280.501 153.434 280.785 152.997 281.184 152.681C281.582 152.365 282.074 152.187 282.583 152.175C283.092 152.163 283.591 152.318 284.004 152.615C284.417 152.912 284.721 153.336 284.87 153.821C285.057 154.427 303.293 213.886 309.388 225.354C313.474 232.702 318.73 239.339 324.95 245.007C325.309 245.318 325.565 245.731 325.682 246.19C325.799 246.65 325.773 247.134 325.607 247.579C325.44 248.023 325.142 248.406 324.751 248.677C324.361 248.948 323.897 249.093 323.421 249.093L323.398 249.058Z" fill="#68E1FD"/>
<path id="Vector_14" d="M228.76 256.603C228.612 256.614 228.464 256.614 228.316 256.603C227.913 256.524 227.537 256.34 227.228 256.071C226.918 255.801 226.686 255.454 226.553 255.066L203.694 187.539C203.542 186.968 203.614 186.361 203.894 185.841C204.174 185.321 204.641 184.926 205.202 184.737C205.763 184.548 206.375 184.578 206.914 184.821C207.453 185.065 207.88 185.503 208.107 186.048L229.682 249.687L289.762 180.995C289.955 180.74 290.2 180.528 290.479 180.371C290.759 180.214 291.068 180.116 291.387 180.084C291.706 180.051 292.029 180.085 292.334 180.182C292.64 180.279 292.922 180.438 293.163 180.649C293.404 180.86 293.6 181.118 293.736 181.408C293.873 181.697 293.948 182.012 293.958 182.331C293.967 182.651 293.911 182.969 293.791 183.266C293.672 183.563 293.493 183.833 293.264 184.057L230.523 255.834C230.301 256.08 230.028 256.275 229.724 256.408C229.42 256.54 229.092 256.607 228.76 256.603Z" fill="#68E1FD"/>
<path id="Vector_15" d="M228.83 256.603H228.596L151.343 249.058C150.872 249.014 150.426 248.828 150.064 248.525C149.701 248.223 149.439 247.818 149.313 247.363C149.186 246.909 149.201 246.427 149.355 245.981C149.509 245.536 149.795 245.147 150.176 244.867L210.01 200.997C210.509 200.654 211.124 200.517 211.722 200.617C212.321 200.717 212.857 201.046 213.217 201.533C213.577 202.021 213.732 202.629 213.65 203.229C213.568 203.829 213.255 204.373 212.777 204.746L157.904 245.018L229.122 252.004C229.741 252.033 230.323 252.307 230.74 252.764C231.158 253.221 231.375 253.825 231.346 254.443C231.317 255.061 231.042 255.641 230.584 256.057C230.125 256.473 229.519 256.69 228.9 256.661L228.83 256.603Z" fill="#68E1FD"/>
<path id="Vector_16" d="M282.675 156.802C282.212 156.802 281.76 156.665 281.375 156.408C280.99 156.151 280.691 155.785 280.515 155.358L276.102 144.635L265.956 143.378C265.65 143.34 265.354 143.243 265.085 143.092C264.816 142.94 264.579 142.737 264.389 142.494C264.199 142.252 264.058 141.974 263.976 141.677C263.893 141.38 263.87 141.07 263.908 140.764C263.945 140.458 264.043 140.163 264.195 139.895C264.347 139.627 264.55 139.391 264.794 139.201C265.037 139.011 265.316 138.871 265.613 138.789C265.911 138.707 266.222 138.683 266.529 138.721L278.028 140.141C278.441 140.191 278.833 140.351 279.164 140.602C279.494 140.854 279.751 141.189 279.908 141.573L284.87 153.589C285.016 153.942 285.072 154.326 285.033 154.707C284.995 155.087 284.863 155.452 284.65 155.77C284.436 156.087 284.148 156.348 283.809 156.528C283.471 156.708 283.094 156.802 282.71 156.802H282.675Z" fill="#231F20"/>
<path id="Vector_17" d="M214.584 171.591C214.584 171.591 180 168.012 180 171.591C180 175.169 184.538 187.231 190.593 187.931C196.647 188.632 211.254 183.86 214.53 178.975C217.806 174.09 214.584 171.591 214.584 171.591Z" fill="#A7A7A7"/>
<path id="Vector_18" d="M192.074 188C191.632 188 191.204 188 190.776 188C184.466 187.289 180 175.759 180 172.239C180 172.067 180.027 171.898 180.081 171.742C180.135 171.586 180.214 171.448 180.312 171.337C182.571 168.528 208.783 170.938 214.066 171.441C214.152 171.457 214.236 171.492 214.313 171.545C214.741 171.871 215.112 172.314 215.4 172.847C215.689 173.379 215.89 173.987 215.988 174.632C216.039 175.553 215.927 176.477 215.661 177.33C215.395 178.182 214.982 178.939 214.456 179.539C211.275 183.995 198.409 188 192.074 188ZM181.246 172.395C181.415 175.394 185.479 185.781 190.931 186.387C196.787 187.029 210.626 182.608 213.599 178.411C213.983 177.991 214.291 177.462 214.503 176.862C214.714 176.262 214.822 175.607 214.819 174.944C214.759 174.56 214.642 174.197 214.475 173.876C214.307 173.554 214.093 173.28 213.846 173.071C198.994 171.511 182.96 170.921 181.246 172.377V172.395Z" fill="#231F20"/>
<path id="Vector_19" d="M228.76 255.438C228.501 255.434 228.25 255.344 228.048 255.182L195.358 229.475C195.115 229.285 194.959 229.007 194.921 228.701C194.884 228.396 194.97 228.088 195.159 227.845C195.254 227.724 195.372 227.623 195.506 227.547C195.64 227.471 195.788 227.423 195.941 227.404C196.094 227.386 196.249 227.398 196.398 227.44C196.546 227.481 196.685 227.552 196.805 227.647L229.495 253.354C229.688 253.504 229.829 253.709 229.899 253.943C229.968 254.176 229.963 254.425 229.883 254.655C229.803 254.885 229.653 255.085 229.454 255.225C229.254 255.365 229.016 255.44 228.772 255.438H228.76Z" fill="#231F20"/>
<path id="Vector_20" d="M253.966 276.197C253.693 276.198 253.429 276.103 253.219 275.93L228.024 255.171C227.895 255.077 227.787 254.959 227.706 254.822C227.624 254.685 227.572 254.533 227.552 254.375C227.531 254.218 227.544 254.058 227.588 253.905C227.632 253.752 227.708 253.61 227.809 253.487C227.91 253.365 228.036 253.264 228.178 253.192C228.32 253.119 228.475 253.077 228.634 253.066C228.793 253.056 228.953 253.078 229.103 253.132C229.253 253.185 229.391 253.269 229.507 253.378L254.713 274.137C254.832 274.234 254.929 274.354 255.001 274.49C255.073 274.625 255.117 274.773 255.131 274.926C255.145 275.078 255.129 275.232 255.083 275.378C255.038 275.525 254.964 275.661 254.865 275.778C254.755 275.91 254.618 276.015 254.463 276.088C254.307 276.16 254.138 276.198 253.966 276.197Z" fill="#231F20"/>
<path id="Vector_21" d="M209.794 232.48L195.161 222.365C194.356 221.808 193.252 222.006 192.695 222.807C192.139 223.607 192.34 224.708 193.146 225.264L207.778 235.38C208.584 235.936 209.688 235.739 210.245 234.938C210.801 234.138 210.599 233.037 209.794 232.48Z" fill="#D1D3D4"/>
<path id="Vector_22" d="M208.796 236.24C208.329 236.237 207.873 236.095 207.488 235.832V235.832L192.848 225.715C192.351 225.364 192.012 224.833 191.902 224.236C191.843 223.939 191.845 223.632 191.909 223.336C191.974 223.039 192.098 222.759 192.276 222.513C192.626 222.014 193.158 221.671 193.758 221.558C194.357 221.455 194.973 221.589 195.475 221.931L210.15 232.048C210.537 232.337 210.825 232.739 210.973 233.198C211.121 233.656 211.123 234.15 210.979 234.61C210.834 235.07 210.549 235.474 210.165 235.766C209.78 236.058 209.314 236.223 208.831 236.24H208.796ZM208.095 234.959C208.367 235.144 208.7 235.215 209.024 235.156C209.347 235.097 209.635 234.913 209.823 234.645C210.009 234.374 210.079 234.041 210.02 233.719C209.961 233.396 209.777 233.11 209.508 232.922L194.867 222.804C194.598 222.62 194.266 222.549 193.944 222.608C193.623 222.667 193.338 222.851 193.151 223.118C193.054 223.249 192.985 223.398 192.949 223.556C192.912 223.715 192.91 223.879 192.941 224.038C192.97 224.197 193.03 224.35 193.118 224.485C193.206 224.621 193.321 224.738 193.455 224.83L208.095 234.959Z" fill="#231F20"/>
<path id="Vector_23" d="M260.616 270.426L244.299 280.527C243.467 281.042 243.209 282.131 243.724 282.959C244.24 283.786 245.332 284.039 246.165 283.524L262.482 273.423C263.315 272.908 263.572 271.819 263.057 270.991C262.542 270.163 261.449 269.91 260.616 270.426Z" fill="#D1D3D4"/>
<path id="Vector_24" d="M245.233 284.312C245.057 284.31 244.881 284.291 244.708 284.254C244.111 284.11 243.595 283.738 243.272 283.218C242.961 282.698 242.865 282.078 243.005 281.489C243.144 280.9 243.508 280.389 244.019 280.063L260.364 269.945C260.878 269.723 261.455 269.692 261.989 269.858C262.524 270.024 262.981 270.377 263.277 270.851C263.573 271.325 263.688 271.89 263.601 272.442C263.514 272.994 263.231 273.496 262.804 273.857L246.459 283.963C246.093 284.195 245.667 284.316 245.233 284.312ZM261.578 270.667C261.351 270.665 261.127 270.73 260.936 270.853L244.591 280.959C244.453 281.045 244.334 281.157 244.24 281.288C244.145 281.42 244.078 281.57 244.043 281.728C244.001 281.885 243.993 282.049 244.02 282.209C244.046 282.37 244.105 282.523 244.194 282.659C244.273 282.804 244.382 282.931 244.513 283.031C244.645 283.132 244.796 283.203 244.957 283.24C245.118 283.278 245.286 283.28 245.448 283.249C245.61 283.217 245.764 283.151 245.899 283.055L262.244 272.949C262.497 272.819 262.698 272.606 262.812 272.345C262.926 272.084 262.947 271.792 262.87 271.519C262.793 271.245 262.623 271.006 262.39 270.842C262.157 270.679 261.874 270.6 261.59 270.62L261.578 270.667Z" fill="#231F20"/>
<path id="Vector_25" d="M295.681 179.435H291.875C291.799 179.447 291.721 179.441 291.647 179.42C291.572 179.398 291.504 179.361 291.445 179.311C291.387 179.261 291.34 179.199 291.308 179.129C291.276 179.059 291.259 178.982 291.259 178.905C291.259 178.828 291.276 178.752 291.308 178.682C291.34 178.612 291.387 178.55 291.445 178.5C291.504 178.45 291.572 178.412 291.647 178.391C291.721 178.37 291.799 178.364 291.875 178.376H295.739C295.816 178.364 295.894 178.37 295.968 178.391C296.042 178.412 296.111 178.45 296.169 178.5C296.228 178.55 296.274 178.612 296.307 178.682C296.339 178.752 296.355 178.828 296.355 178.905C296.355 178.982 296.339 179.059 296.307 179.129C296.274 179.199 296.228 179.261 296.169 179.311C296.111 179.361 296.042 179.398 295.968 179.42C295.894 179.441 295.816 179.447 295.739 179.435H295.681Z" fill="#D1D3D4"/>
<path id="Vector_26" d="M322.137 182.905L296.078 181.321C295.963 181.313 295.854 181.268 295.768 181.192C295.681 181.117 295.622 181.015 295.599 180.902L289.54 153.856C289.516 153.701 289.554 153.542 289.645 153.414C289.695 153.353 289.757 153.304 289.827 153.27C289.898 153.236 289.975 153.217 290.054 153.216L330.274 152.448C330.359 152.437 330.444 152.452 330.521 152.489C330.598 152.526 330.662 152.585 330.706 152.657C330.754 152.724 330.786 152.8 330.8 152.881C330.814 152.961 330.81 153.044 330.788 153.123L322.615 182.521C322.584 182.626 322.522 182.719 322.436 182.788C322.351 182.856 322.246 182.897 322.137 182.905ZM296.545 180.332L321.74 181.822L329.597 153.53L290.754 154.264L296.545 180.332Z" fill="#D1D3D4"/>
<path id="Vector_27" d="M302.698 181.752C302.563 181.753 302.433 181.703 302.334 181.612C302.234 181.522 302.172 181.397 302.161 181.263L299.966 153.589C299.959 153.519 299.967 153.448 299.988 153.382C300.01 153.315 300.044 153.253 300.09 153.2C300.136 153.147 300.192 153.103 300.255 153.072C300.317 153.041 300.386 153.022 300.456 153.018C300.597 153.008 300.736 153.054 300.843 153.146C300.95 153.237 301.016 153.367 301.028 153.507L303.223 181.182C303.233 181.322 303.187 181.46 303.095 181.567C303.003 181.674 302.873 181.74 302.733 181.752H302.698Z" fill="#D1D3D4"/>
<path id="Vector_28" d="M308.582 182.101C308.512 182.098 308.443 182.082 308.38 182.052C308.316 182.022 308.26 181.98 308.213 181.927C308.166 181.875 308.13 181.815 308.107 181.748C308.084 181.682 308.075 181.612 308.08 181.543L309.691 153.519C309.68 153.443 309.685 153.365 309.706 153.291C309.728 153.217 309.765 153.148 309.816 153.09C309.866 153.032 309.928 152.985 309.999 152.953C310.069 152.921 310.145 152.904 310.222 152.904C310.299 152.904 310.376 152.921 310.446 152.953C310.516 152.985 310.579 153.032 310.629 153.09C310.679 153.148 310.717 153.217 310.738 153.291C310.76 153.365 310.765 153.443 310.753 153.519L309.142 181.543C309.148 181.617 309.137 181.692 309.11 181.762C309.084 181.832 309.043 181.896 308.99 181.949C308.937 182.002 308.873 182.043 308.802 182.069C308.732 182.096 308.657 182.107 308.582 182.101V182.101Z" fill="#D1D3D4"/>
<path id="Vector_29" d="M315.003 182.486H314.898C314.759 182.457 314.637 182.376 314.558 182.258C314.479 182.14 314.45 181.996 314.478 181.857L320.385 153.065C320.399 152.997 320.426 152.932 320.465 152.874C320.504 152.817 320.554 152.767 320.612 152.729C320.67 152.691 320.735 152.664 320.803 152.651C320.871 152.637 320.942 152.638 321.01 152.651C321.078 152.665 321.143 152.692 321.201 152.731C321.259 152.77 321.308 152.819 321.347 152.877C321.385 152.935 321.412 153 321.425 153.068C321.438 153.136 321.438 153.206 321.424 153.274L315.517 182.066C315.493 182.185 315.428 182.291 315.335 182.367C315.241 182.444 315.124 182.485 315.003 182.486Z" fill="#D1D3D4"/>
<path id="Vector_30" d="M327.682 162.926C291.49 162.402 291.42 162.169 291.291 161.622C291.263 161.483 291.29 161.339 291.366 161.22C291.442 161.1 291.562 161.015 291.7 160.982C291.806 160.946 291.921 160.946 292.027 160.982C293.533 161.238 314.093 161.622 327.694 161.82C327.835 161.826 327.969 161.886 328.067 161.988C328.165 162.09 328.219 162.226 328.219 162.367C328.222 162.439 328.211 162.512 328.185 162.579C328.16 162.647 328.121 162.709 328.07 162.761C328.02 162.813 327.96 162.855 327.893 162.883C327.827 162.911 327.755 162.926 327.682 162.926Z" fill="#D1D3D4"/>
<path id="Vector_31" d="M325.791 169.772L293.334 168.817C293.264 168.817 293.194 168.803 293.129 168.775C293.065 168.747 293.006 168.706 292.958 168.655C292.91 168.604 292.873 168.543 292.849 168.477C292.826 168.41 292.816 168.34 292.821 168.27C292.824 168.133 292.88 168.003 292.979 167.907C293.077 167.811 293.209 167.758 293.346 167.758V167.758L325.803 168.701C325.945 168.701 326.082 168.757 326.182 168.858C326.283 168.958 326.34 169.094 326.34 169.236C326.34 169.378 326.283 169.515 326.182 169.615C326.082 169.715 325.945 169.772 325.803 169.772H325.791Z" fill="#D1D3D4"/>
<path id="Vector_32" d="M323.935 176.431L294.747 175.174C294.678 175.171 294.61 175.154 294.548 175.125C294.485 175.096 294.429 175.055 294.382 175.004C294.336 174.953 294.299 174.894 294.276 174.829C294.252 174.764 294.242 174.696 294.245 174.627C294.245 174.556 294.259 174.487 294.287 174.422C294.315 174.358 294.356 174.3 294.408 174.252C294.459 174.204 294.52 174.167 294.586 174.143C294.653 174.119 294.723 174.11 294.794 174.115L323.981 175.36C324.124 175.36 324.26 175.417 324.361 175.517C324.462 175.618 324.518 175.754 324.518 175.896C324.518 176.038 324.462 176.174 324.361 176.275C324.26 176.375 324.124 176.431 323.981 176.431H323.935Z" fill="#D1D3D4"/>
<path id="Vector_33" d="M228.106 260.899C231.375 260.899 234.025 258.256 234.025 254.996C234.025 251.736 231.375 249.093 228.106 249.093C224.837 249.093 222.187 251.736 222.187 254.996C222.187 258.256 224.837 260.899 228.106 260.899Z" fill="#231F20"/>
<path id="Vector_34" d="M228.106 261.481C226.82 261.481 225.563 261.101 224.493 260.388C223.424 259.675 222.59 258.663 222.098 257.478C221.606 256.293 221.477 254.989 221.728 253.731C221.979 252.473 222.598 251.317 223.508 250.41C224.417 249.504 225.576 248.886 226.837 248.636C228.099 248.385 229.406 248.514 230.595 249.005C231.783 249.496 232.799 250.327 233.513 251.393C234.228 252.46 234.609 253.713 234.609 254.996C234.606 256.715 233.92 258.363 232.701 259.578C231.482 260.794 229.83 261.478 228.106 261.481V261.481ZM228.106 249.675C227.051 249.675 226.019 249.987 225.142 250.572C224.265 251.157 223.581 251.988 223.177 252.96C222.773 253.932 222.667 255.002 222.873 256.034C223.079 257.066 223.587 258.014 224.333 258.758C225.08 259.502 226.03 260.009 227.065 260.214C228.1 260.42 229.173 260.314 230.148 259.912C231.123 259.509 231.956 258.827 232.542 257.952C233.129 257.077 233.442 256.048 233.442 254.996C233.439 253.586 232.875 252.234 231.876 251.237C230.876 250.24 229.52 249.678 228.106 249.675V249.675Z" fill="#231F20"/>
<path id="Vector_35" d="M228.106 268.641C225.387 268.644 222.729 267.841 220.467 266.337C218.206 264.832 216.443 262.692 215.401 260.187C214.36 257.683 214.087 254.927 214.616 252.267C215.146 249.608 216.455 247.165 218.378 245.248C220.3 243.331 222.75 242.025 225.417 241.497C228.083 240.969 230.847 241.241 233.359 242.28C235.87 243.318 238.016 245.077 239.525 247.332C241.034 249.587 241.838 252.238 241.836 254.949C241.833 258.58 240.385 262.061 237.811 264.628C235.237 267.195 231.747 268.638 228.106 268.641V268.641ZM228.106 242.317C225.601 242.317 223.152 243.058 221.069 244.446C218.985 245.834 217.362 247.807 216.403 250.115C215.444 252.424 215.193 254.963 215.682 257.414C216.171 259.864 217.377 262.115 219.149 263.882C220.921 265.648 223.178 266.852 225.635 267.339C228.092 267.826 230.639 267.576 232.954 266.62C235.268 265.664 237.247 264.045 238.639 261.968C240.031 259.89 240.774 257.448 240.774 254.949C240.755 251.609 239.413 248.412 237.04 246.054C234.667 243.696 231.456 242.37 228.106 242.364V242.317Z" fill="#231F20"/>
<path id="Vector_36" d="M274.456 204.339C274.127 204.338 273.802 204.268 273.503 204.134C273.203 204 272.935 203.804 272.716 203.559L265.022 195.001C264.817 194.772 264.659 194.505 264.557 194.214C264.455 193.924 264.412 193.617 264.429 193.31C264.447 193.003 264.524 192.702 264.658 192.425C264.792 192.148 264.979 191.9 265.209 191.695C265.439 191.49 265.707 191.332 265.999 191.231C266.29 191.129 266.598 191.086 266.906 191.103C267.214 191.121 267.515 191.198 267.793 191.332C268.071 191.465 268.32 191.652 268.525 191.881L276.242 200.45C276.655 200.909 276.868 201.512 276.835 202.128C276.802 202.743 276.526 203.321 276.067 203.733C275.627 204.133 275.051 204.349 274.456 204.339V204.339Z" fill="#68E1FD"/>
<path id="Vector_37" d="M142.914 239.092C142.787 239.093 142.664 239.052 142.563 238.976L117.637 219.742C117.526 219.644 117.455 219.508 117.441 219.36C117.426 219.213 117.469 219.066 117.56 218.948C117.651 218.831 117.783 218.753 117.93 218.729C118.076 218.706 118.227 218.739 118.349 218.822L143.276 238.091C143.37 238.166 143.438 238.269 143.471 238.384C143.505 238.5 143.501 238.623 143.462 238.736C143.422 238.85 143.348 238.949 143.25 239.019C143.152 239.088 143.034 239.126 142.914 239.127V239.092Z" fill="#909090"/>
<path id="Vector_38" d="M146.416 286.105H146.288C146.212 286.089 146.141 286.057 146.078 286.013C146.015 285.969 145.961 285.913 145.92 285.848C145.879 285.783 145.851 285.711 145.838 285.635C145.825 285.559 145.827 285.481 145.844 285.407L151.588 259.327C151.622 259.173 151.716 259.038 151.85 258.953C151.984 258.868 152.146 258.839 152.3 258.873C152.455 258.907 152.59 259.001 152.676 259.134C152.761 259.267 152.79 259.429 152.756 259.583L147.012 285.581C146.994 285.726 146.924 285.86 146.814 285.957C146.704 286.053 146.563 286.106 146.416 286.105V286.105Z" fill="#909090"/>
<path id="Vector_39" d="M168.984 243.47C168.829 243.498 168.67 243.463 168.54 243.373C168.411 243.284 168.323 243.147 168.295 242.992C168.267 242.838 168.302 242.679 168.392 242.55C168.482 242.421 168.619 242.333 168.774 242.306L189.929 234.156C190.001 234.128 190.078 234.114 190.155 234.116C190.232 234.118 190.309 234.135 190.379 234.166C190.45 234.198 190.513 234.243 190.566 234.299C190.619 234.355 190.661 234.421 190.688 234.493C190.716 234.564 190.729 234.64 190.727 234.716C190.725 234.793 190.708 234.868 190.676 234.937C190.645 235.007 190.6 235.069 190.543 235.121C190.487 235.173 190.421 235.213 190.349 235.238L169.194 243.388C169.129 243.427 169.058 243.455 168.984 243.47V243.47Z" fill="#909090"/>
<path id="Vector_40" d="M304.986 285.884C304.897 285.887 304.808 285.867 304.729 285.826C304.66 285.792 304.598 285.745 304.547 285.688C304.496 285.631 304.457 285.564 304.432 285.491C304.408 285.419 304.397 285.342 304.402 285.266C304.407 285.189 304.427 285.114 304.461 285.046L317.432 259.036C317.502 258.899 317.623 258.795 317.77 258.747C317.916 258.699 318.076 258.711 318.214 258.78C318.283 258.813 318.345 258.86 318.395 258.918C318.446 258.975 318.484 259.043 318.508 259.115C318.532 259.188 318.541 259.265 318.535 259.342C318.528 259.418 318.507 259.492 318.471 259.56L305.511 285.57C305.461 285.665 305.385 285.744 305.292 285.799C305.2 285.855 305.094 285.884 304.986 285.884V285.884Z" fill="#909090"/>
<path id="Vector_41" d="M307.928 241.525C307.825 241.528 307.723 241.499 307.636 241.444L283.119 227.403C283.002 227.318 282.921 227.193 282.891 227.052C282.861 226.911 282.885 226.764 282.957 226.64C283.03 226.515 283.146 226.422 283.284 226.378C283.422 226.334 283.571 226.342 283.703 226.402L308.22 240.443C308.33 240.508 308.415 240.606 308.463 240.724C308.511 240.842 308.519 240.972 308.486 241.095C308.453 241.217 308.38 241.326 308.28 241.404C308.179 241.481 308.056 241.524 307.928 241.525Z" fill="#909090"/>
<path id="Vector_42" d="M333.018 243.47C332.925 243.471 332.834 243.45 332.751 243.41C332.668 243.369 332.595 243.31 332.539 243.237C332.494 243.174 332.462 243.104 332.445 243.029C332.428 242.954 332.426 242.876 332.439 242.8C332.452 242.725 332.48 242.652 332.521 242.587C332.562 242.522 332.616 242.466 332.679 242.422L357.664 224.481C357.789 224.406 357.938 224.382 358.081 224.412C358.224 224.442 358.351 224.524 358.436 224.643C358.521 224.761 358.558 224.907 358.541 225.052C358.523 225.196 358.452 225.329 358.341 225.424L333.356 243.365C333.256 243.433 333.138 243.469 333.018 243.47V243.47Z" fill="#909090"/>
<line id="Line 6" x1="315.162" y1="246.473" x2="277.162" y2="259.473" stroke="#909090"/>
<line id="Line 5" x1="323.504" y1="238.062" x2="318.504" y2="198.062" stroke="#909090"/>
<line id="Line 7" x1="159.305" y1="251.604" x2="185.305" y2="271.604" stroke="#919191"/>
<line id="Line 2" x1="327.347" y1="251.64" x2="353.347" y2="276.64" stroke="#909090"/>
<line id="Line 3" x1="146.14" y1="245.48" x2="105.14" y2="257.48" stroke="#909090"/>
<line id="Line 4" x1="152.5" y1="234.985" x2="153.5" y2="200.985" stroke="#909090"/>
</g>
</g>
</g>
</svg>
